<?xml version="1.0" encoding="utf-8"?>
<!-- Generator: Adobe Illustrator 16.0.0, SVG Export Plug-In . SVG Version: 6.00 Build 0)  -->
<!DOCTYPE svg PUBLIC "-//W3C//DTD SVG 1.1//EN" "http://www.w3.org/Graphics/SVG/1.1/DTD/svg11.dtd">
<svg version="1.1" id="图层_1" xmlns="http://www.w3.org/2000/svg" xmlns:xlink="http://www.w3.org/1999/xlink" x="0px" y="0px"
	 width="960px" height="560px" viewBox="0 0 960 560" enable-background="new 0 0 960 560" xml:space="preserve">
<ellipse fill="#FFFF00" stroke="#F7931E" stroke-miterlimit="10" cx="452.429" cy="85.81" rx="197.619" ry="77.381"/>
<ellipse fill="#00FF00" stroke="#009245" stroke-miterlimit="10" cx="461.357" cy="243.548" rx="264.881" ry="43.453"/>
<g>
	<g>
		<path d="M130.601,425.304c14.081,2.44,27.883,6.988,42.273,7.208c12.96,0.199,24.516-5.378,35.333-11.957
			c9.735-5.921,19.208-12.918,30.939-13.858c12.947-1.038,24.396,7.055,35.868,11.838c10.471,4.365,20.965,4.89,31.968,2.336
			c13.032-3.025,24.378-11.291,35.727-17.99c11.647-6.876,24.538-13.018,38.45-11.021c10.989,1.577,19.859,11.383,28.563,17.442
			c9.525,6.632,19.998,11.867,31.597,13.393c11.549,1.518,23.121-1.972,33.654-6.377c9.884-4.135,19.396-9.136,29.245-13.361
			c9.699-4.16,22.573-10.165,33.424-8.432c10.284,1.643,18.597,10.652,26.42,16.795c7.058,5.542,15.668,11.079,25.055,10.396
			c17.021-1.239,28.299-20.098,39.927-30.32c7.067-6.213,15.957-10.672,25.547-8.352c8.447,2.044,13.618,11.019,17.982,17.762
			c4.525,6.993,9.084,14.031,15.914,19c8.712,6.337,20.979,6.022,31.142,4.802c23.963-2.88,46.784-13.38,69.821-20.122
			c5.269-1.542,10.642-2.852,16.101-3.489c6.204-0.724,10.867-0.034,14.556,5.455c2.729,4.063,4.891,7.462,9.174,10.026
			c5.3,3.172,11.608,4.246,17.677,4.636c8.571,0.552,17.198-0.955,25.712-1.708c1.911-0.169,1.928-3.171,0-3
			c-13.934,1.231-28.871,4.342-41.874-2.519c-5.047-2.662-7.022-7.971-10.488-12.164c-2.624-3.177-6.425-3.849-10.313-3.96
			c-10.143-0.291-20.642,3.453-30.138,6.571c-10.911,3.583-21.84,7.08-32.789,10.553c-13.56,4.301-27.601,8.165-41.956,7.184
			c-11.339-0.775-18.832-6.71-25.222-15.665c-8.701-12.196-16.265-29.43-34.252-26.763c-17.731,2.628-28.269,20.67-40.906,31.448
			c-8.161,6.96-17.274,9.661-27.429,5.182c-9.487-4.185-16.859-12.197-25.173-18.192c-7.649-5.516-15.09-7.57-24.382-6.001
			c-10.919,1.844-21.42,6.59-31.45,11.107c-21.816,9.826-43.187,22.463-67.508,13.243c-12.54-4.753-22.564-13.789-33.323-21.455
			c-8.137-5.798-16.935-7.322-26.768-5.896c-27.348,3.966-45.956,29.768-74.427,30.521c-12.157,0.321-23.08-6.06-33.761-10.998
			c-10.34-4.779-20.677-6.489-31.666-2.785c-10.236,3.451-18.98,10.552-28.333,15.761c-6.136,3.417-12.589,6.072-19.515,7.33
			c-8.179,1.486-16.733,0.246-24.795-1.296c-8.299-1.587-16.47-3.756-24.8-5.199C129.507,422.083,128.698,424.974,130.601,425.304
			L130.601,425.304z"/>
	</g>
</g>
<g>
	<g>
		<path d="M315.214,454.81c0.016,10.476,0.564,21.183,4.007,31.165c3.002,8.704,10.076,17.651,20.112,17.954
			c23.023,0.694,17.073-30.627,19.303-45.149c0.291-1.892-2.6-2.704-2.893-0.797c-1.903,12.391,3.787,42.535-15.308,42.979
			c-10.626,0.248-16.69-10.026-19.31-18.873c-2.602-8.784-2.898-18.18-2.912-27.279C318.211,452.875,315.211,452.875,315.214,454.81
			L315.214,454.81z"/>
	</g>
</g>
<g>
	<g>
		<path d="M415.524,456.881c-10.081,0.057-22.385,0.795-29.632,8.772c-0.604,0.665-0.61,1.918,0.304,2.355
			c11.926,5.714,28.425,5.84,37.66,16.315c2.501,2.837,2.115,6.31,0.396,9.413c-2.117,3.82-7.498,4.733-11.427,5.203
			c-6.678,0.798-18.669,0.802-23.621-4.715c-1.294-1.442-3.409,0.687-2.121,2.121c5.617,6.259,18.155,6.291,25.742,5.594
			c7.737-0.712,16.628-4.685,15.831-13.891c-0.643-7.414-9.638-11.562-15.555-13.977c-8.238-3.363-17.382-4.817-25.391-8.654
			c0.102,0.785,0.203,1.57,0.304,2.355c6.687-7.36,18.233-7.841,27.511-7.894C417.458,459.87,417.459,456.87,415.524,456.881
			L415.524,456.881z"/>
	</g>
</g>
<g>
	<g>
		<path d="M446.476,457.5c9.524,0,19.048,0,28.572,0c1.935,0,1.935-3,0-3c-9.524,0-19.048,0-28.572,0
			C444.542,454.5,444.542,457.5,446.476,457.5L446.476,457.5z"/>
	</g>
</g>
<g>
	<g>
		<path d="M446.167,459.571c0,13.096,0,26.19,0,39.286c0,1.935,3,1.935,3,0c0-13.096,0-26.19,0-39.286
			C449.167,457.637,446.167,457.637,446.167,459.571L446.167,459.571z"/>
	</g>
</g>
<g>
	<g>
		<path d="M447.268,481.256c7.646,1.095,14.914-0.032,22.227-2.381c1.834-0.589,1.05-3.486-0.798-2.893
			c-6.735,2.162-13.563,3.393-20.631,2.381C446.174,478.093,445.359,480.982,447.268,481.256L447.268,481.256z"/>
	</g>
</g>
<g>
	<g>
		<path d="M448.065,502.685c11.564-2.655,23.213-6.605,34.917-2.381c1.824,0.658,2.603-2.241,0.797-2.893
			c-12.22-4.412-24.418-0.396-36.512,2.381C445.382,500.225,446.182,503.117,448.065,502.685L448.065,502.685z"/>
	</g>
</g>
<g>
	<g>
		<path d="M503.515,454.053c-6.731,14.444-2.866,32.582-0.151,47.584c0.344,1.902,3.234,1.094,2.893-0.797
			c-2.539-14.035-6.466-31.722-0.151-45.273C506.916,453.825,504.331,452.3,503.515,454.053L503.515,454.053z"/>
	</g>
</g>
<g>
	<g>
		<path d="M504.018,456.256c8.222-2.143,29.356,0.229,26.584,13.104c-1.062,4.928-10.654,6.648-14.58,7.597
			c-4.619,1.116-9.331,1.705-13.991,2.598c0.385,0.914,0.771,1.827,1.155,2.741c4.247-2.479,8.626-4.033,13.481-2.52
			c4.058,1.265,7.27,4.813,10.087,7.813c5.697,6.067,11.029,12.649,19.324,15.096c1.859,0.549,2.648-2.347,0.797-2.893
			c-9.641-2.843-14.99-11.966-22.078-18.37c-7.079-6.396-15.061-6.425-23.125-1.717c-1.534,0.896-0.466,3.052,1.155,2.741
			c8.85-1.693,31.352-2.505,30.873-15.455c-0.499-13.479-20.517-16.225-30.479-13.628
			C501.35,453.851,502.144,456.744,504.018,456.256L504.018,456.256z"/>
	</g>
</g>
<path fill="none" stroke="#000000" stroke-miterlimit="10" d="M529.199,121.72"/>
<line fill="none" stroke="#000000" stroke-miterlimit="10" x1="381.5" y1="142" x2="381.5" y2="215"/>
<line fill="none" stroke="#000000" stroke-miterlimit="10" x1="395.5" y1="142" x2="395.5" y2="215"/>
<line fill="none" stroke="#000000" stroke-miterlimit="10" x1="373" y1="142.5" x2="381" y2="142.5"/>
<line fill="none" stroke="#000000" stroke-miterlimit="10" x1="373" y1="142.5" x2="388.462" y2="132.472"/>
<line fill="none" stroke="#000000" stroke-miterlimit="10" x1="388.462" y1="132.472" x2="401.979" y2="142"/>
<line fill="none" stroke="#000000" stroke-miterlimit="10" x1="402" y1="142.5" x2="395" y2="142.5"/>
<line fill="none" stroke="#000000" stroke-miterlimit="10" x1="483.5" y1="137" x2="483.5" y2="212"/>
<line fill="none" stroke="#000000" stroke-miterlimit="10" x1="500.5" y1="137" x2="500.5" y2="212"/>
<line fill="none" stroke="#000000" stroke-miterlimit="10" x1="484" y1="211.5" x2="476.489" y2="212"/>
<line fill="none" stroke="#000000" stroke-miterlimit="10" x1="500.5" y1="212" x2="507.68" y2="211.5"/>
<line fill="none" stroke="#000000" stroke-miterlimit="10" x1="507.68" y1="211.5" x2="492.431" y2="221.828"/>
<line fill="none" stroke="#000000" stroke-miterlimit="10" x1="492.431" y1="221.828" x2="476.489" y2="212"/>
<text transform="matrix(1 0 0 1 327.5386 182.6587)" font-family="'MicrosoftYaHei'" font-size="12">Pipe In</text>
<text transform="matrix(1 0 0 1 514.96 184.5396)" font-family="'MicrosoftYaHei'" font-size="12">Pipe Out</text>
<text transform="matrix(1 0 0 1 641.4512 245.2988)" font-family="'MicrosoftYaHei'" font-size="12">father process</text>
<text transform="matrix(1 0 0 1 581.5 87.2632)" font-family="'MicrosoftYaHei'" font-size="12">son process</text>
<line stroke="#000000" stroke-miterlimit="10" x1="292.877" y1="259.804" x2="254.107" y2="433.192"/>
<line stroke="#000000" stroke-miterlimit="10" x1="307.954" y1="259.804" x2="268.646" y2="433.192"/>
<line fill="none" stroke="#000000" stroke-miterlimit="10" x1="292.877" y1="259.804" x2="282.667" y2="270"/>
<line fill="none" stroke="#000000" stroke-miterlimit="10" x1="268.646" y1="433.192" x2="279.833" y2="425.001"/>
<line fill="none" stroke="#000000" stroke-miterlimit="10" x1="564" y1="264.902" x2="599" y2="437.5"/>
<line fill="none" stroke="#000000" stroke-miterlimit="10" x1="578.5" y1="262.5" x2="614" y2="433.192"/>
<line fill="none" stroke="#000000" stroke-miterlimit="10" x1="589.698" y1="430.174" x2="599" y2="437.5"/>
<line fill="none" stroke="#000000" stroke-miterlimit="10" x1="578.5" y1="262.5" x2="588.41" y2="271.671"/>
<text transform="matrix(1 0 0 1 234.9985 342.334)" font-family="'MicrosoftYaHei'" font-size="12">sock1</text>
<text transform="matrix(1 0 0 1 601.665 342.334)" font-family="'MicrosoftYaHei'" font-size="12">sock2</text>
<text transform="matrix(1 0 0 1 244.332 451)" font-family="'MicrosoftYaHei'" font-size="12">user1</text>
<text transform="matrix(1 0 0 1 596.25 451)" font-family="'MicrosoftYaHei'" font-size="12">user2</text>
</svg>
