<?xml version="1.0" encoding="utf-8"?>
<!-- Generator: Adobe Illustrator 16.0.0, SVG Export Plug-In . SVG Version: 6.00 Build 0)  -->
<!DOCTYPE svg PUBLIC "-//W3C//DTD SVG 1.1//EN" "http://www.w3.org/Graphics/SVG/1.1/DTD/svg11.dtd">
<svg version="1.1" id="layer1" xmlns="http://www.w3.org/2000/svg" xmlns:xlink="http://www.w3.org/1999/xlink" x="0px" y="0px"
	 width="960px" height="560px" viewBox="0 0 960 560" enable-background="new 0 0 960 560" xml:space="preserve">
<rect x="227.476" y="378.948" fill="#FBB03B" stroke="#000000" stroke-miterlimit="10" width="53.764" height="82.311"/>
<text transform="matrix(1 0 0 1 245.8901 420.5781)" font-family="'MicrosoftYaHei'" font-size="12">DB</text>
<rect x="301.961" y="379.948" fill="#BDCCD4" stroke="#000000" stroke-miterlimit="10" width="48.88" height="81.311"/>
<rect x="376.961" y="378.537" fill="#A9D400" stroke="#000000" stroke-miterlimit="10" width="47" height="81.311"/>
<path fill="none" stroke="#000000" stroke-miterlimit="10" d="M325.724,379.948"/>
<g>
	<g>
		<path d="M471.86,414.703c2.839,0.002,5.621,0.075,8.241,1.294c1.742,0.813,3.269-1.773,1.516-2.59
			c-3.142-1.46-6.338-1.701-9.757-1.704C469.926,411.701,469.926,414.701,471.86,414.703L471.86,414.703z"/>
	</g>
</g>
<g>
	<g>
		<path d="M504.103,411.498c3.168,1.587,6.138,3.276,8.695,5.767c1.387,1.351,3.51-0.771,2.12-2.121
			c-2.739-2.665-5.904-4.531-9.304-6.231C503.892,408.045,502.372,410.632,504.103,411.498L504.103,411.498z"/>
	</g>
</g>
<g>
	<g>
		<path d="M534.857,413.203c2.795,0.063,4.592,2.214,6.438,4.062c1.369,1.366,3.489-0.755,2.121-2.121
			c-2.484-2.48-4.854-4.854-8.563-4.938C532.922,410.158,532.926,413.158,534.857,413.203L534.857,413.203z"/>
	</g>
</g>
<g>
	<g>
		<path d="M564.856,413.203c1.59,0.001,3.683-0.083,4.938,1.063c1.427,1.302,3.554-0.813,2.119-2.121
			c-1.921-1.751-4.576-1.938-7.061-1.938C562.922,410.202,562.922,413.202,564.856,413.203L564.856,413.203z"/>
	</g>
</g>
<g>
	<g>
		<path d="M590.354,411.703c4.146,0.063,6.886,1.88,9.203,5.256c1.087,1.584,3.688,0.086,2.592-1.514
			c-2.931-4.268-6.548-6.664-11.795-6.742C588.418,408.674,588.422,411.674,590.354,411.703L590.354,411.703z"/>
	</g>
</g>
<g>
	<g>
		<path d="M619.059,410.96c1.582,3.162,3.307,6.313,6.537,8.037c1.705,0.911,3.223-1.678,1.516-2.59
			c-2.765-1.479-4.113-4.271-5.461-6.961C620.782,407.716,618.195,409.235,619.059,410.96L619.059,410.96z"/>
	</g>
</g>
<text transform="matrix(1 0 0 1 643.5459 429.7021)" font-family="'MicrosoftYaHei-Bold'" font-size="48">etc</text>
<text transform="matrix(1 0 0 1 415.5762 60.6563)" font-family="'MicrosoftYaHei-Bold'" font-size="48">User</text>
<polygon fill="#00E1FF" stroke="#000000" stroke-miterlimit="10" points="495.91,243.093 468.066,259.159 440.232,243.079 
	440.24,210.934 468.084,194.869 495.918,210.948 "/>
<text transform="matrix(0.9658 0 0 1 455.7393 216.8105)" font-family="'MicrosoftYaHei'" font-size="6.4209">Connect</text>
<text transform="matrix(0.9658 0 0 1 456.7646 224.5156)" font-family="'MicrosoftYaHei'" font-size="6.4209">Receive</text>
<text transform="matrix(0.9658 0 0 1 460.6299 232.2207)" font-family="'MicrosoftYaHei'" font-size="6.4209">Send</text>
<text transform="matrix(0.9658 0 0 1 442.0908 239.9258)" font-family="'MicrosoftYaHei'" font-size="6.4209">Plug-ins interface</text>
<polygon fill="#FA6AFF" points="440.232,243.561 383.646,270.465 383.646,180.499 440.24,210.934 "/>
<polygon fill="#7FB6FF" points="468.075,259.809 468.075,318.035 383.189,270.45 440.232,243.561 "/>
<polygon fill="#35FFBF" points="553.978,270.465 468.075,318.035 468.075,259.809 495.91,243.093 "/>
<polygon fill="#5468FF" points="553.978,270.465 495.91,243.093 495.918,210.948 553.978,180.499 "/>
<polygon fill="#ECFF5F" points="440.24,210.934 383.646,180.499 468.084,132.998 468.084,194.869 "/>
<polygon fill="#FFC47F" points="495.918,210.948 468.084,194.869 468.084,132.998 553.978,180.499 "/>
<text transform="matrix(4.380311e-004 -0.143 1 0.0031 618 363.3965)" font-family="'MicrosoftYaHei'" font-size="503.3792">}</text>
<text transform="matrix(1 0 0 1 483.3906 183.2314)" font-family="'MicrosoftYaHei'" font-size="14">Log</text>
<text transform="matrix(1 0 0 1 411.9683 177.9727)" font-family="'MicrosoftYaHei'" font-size="7.866">Connection</text>
<text transform="matrix(1 0 0 1 425.0273 187.4111)" font-family="'MicrosoftYaHei'" font-size="7.866">pool</text>
<polyline fill="none" stroke="#000000" stroke-miterlimit="10" points="457.91,88.271 449.925,88.46 467.952,77.894 486.115,88.222 
	477.927,88.61 "/>
<polyline fill="none" stroke="#000000" stroke-miterlimit="10" points="478.243,114.983 486.226,114.705 468.317,125.471 
	450.04,115.346 458.225,114.867 "/>
<path fill="none" stroke="#000000" stroke-miterlimit="10" d="M457.824,88.61"/>
<line fill="none" stroke="#000000" stroke-miterlimit="10" x1="478.248" y1="88.61" x2="478.248" y2="114.395"/>
<path fill="none" stroke="#000000" stroke-miterlimit="10" d="M595.726,47.109"/>
<line fill="none" stroke="#000000" stroke-miterlimit="10" x1="457.824" y1="88.61" x2="457.824" y2="114.395"/>
<text transform="matrix(1 0 0 1 455.4741 250.7568)" fill="#E90006" font-family="'MicrosoftYaHei'" font-size="10.4059">Core</text>
<line fill="none" stroke="#F43000" stroke-miterlimit="10" x1="549.5" y1="219" x2="600.5" y2="219"/>
<text transform="matrix(1 0 0 1 602.5449 221.918)" fill="#FF0A1F" font-family="'MicrosoftYaHei'" font-size="11">Solid Library</text>
<text transform="matrix(1 0 0 1 390.4131 493.7227)" fill="#F40006" font-family="'MicrosoftYaHei'" font-size="12.189">Dynamic Library [Plug-ins]</text>
<text transform="matrix(1 0 0 1 506.3398 231.2207)" font-family="'MicrosoftYaHei'" font-size="12">Config</text>
<text transform="matrix(1 0 0 1 308.7773 420.6035)" font-family="'MicrosoftYaHei'" font-size="12">Parser</text>
</svg>
